<svg width="188" height="172" viewBox="0 0 188 172" fill="none" xmlns="http://www.w3.org/2000/svg">
<path fill-rule="evenodd" clip-rule="evenodd" d="M101.025 1.06971L88.0141 21.2337C66.939 28.8789 50.5728 39.9727 40.6426 59.0826L28.2357 59.128C35.1459 25.6403 68.875 -0.531252 101.025 1.06971ZM119.039 23.9379H138.633L126.714 46.1884C144.332 44.9146 160.026 34.4306 174.649 18.7798L88.4101 171C90.4542 164.252 92.3827 157.444 94.0481 150.56H12L62.1137 64.3228L20.3502 62.2495L20.223 61.1086L64.0093 61.2101L85.4332 24.405C79.5036 36.0333 74.134 48.1059 70.2991 61.407C127.987 63.5635 108.743 77.8127 69.1887 92.2212C92.7325 77.3115 92.3643 68.6847 68.0853 66.3401C62.7567 96.0848 66.5721 126.43 94.2487 149.726C99.2821 128.628 101.789 106.803 97.5052 83.7415C118.615 69.0197 112.309 62.1278 86.5645 60.6083C85.5497 57.6566 81.9355 54.4162 77.3232 50.8521L79.8471 44.8954C92.8832 47.4097 106.541 48.413 120.174 47.3317L119.039 23.9379ZM26.6933 65.0822L37.8075 65.0641C33.203 73.4388 31.9866 88.0514 32.9997 105.776C27.2104 93.6401 24.9922 80.1199 26.6933 65.0822ZM115.17 129.039C151.213 117.376 171.764 89.3142 169.992 45.3774C187.998 87.8601 165.477 145.344 103.174 149.891L115.17 129.039ZM121.067 25.1093L128.197 25.1627L122.19 45.9635L121.067 25.1093Z" fill="#C29662"/>
</svg>
